G75*
G70*
%OFA0B0*%
%FSLAX24Y24*%
%IPPOS*%
%LPD*%
%AMOC8*
5,1,8,0,0,1.08239X$1,22.5*
%
%ADD10C,0.0000*%
%ADD11C,0.0740*%
%ADD12R,0.0650X0.0650*%
%ADD13C,0.0650*%
%ADD14C,0.0520*%
D10*
X000100Y000100D02*
X000100Y018470D01*
X017592Y018470D01*
X017592Y000100D01*
X000100Y000100D01*
D11*
X007600Y008600D03*
X007100Y010600D03*
X005600Y012600D03*
X005100Y010600D03*
X005100Y009100D03*
X002600Y012600D03*
X007100Y014600D03*
X008600Y012600D03*
X009100Y010600D03*
X010600Y010600D03*
X011600Y012600D03*
X011600Y014600D03*
X010100Y014600D03*
X014100Y012600D03*
X014100Y010600D03*
X014600Y014600D03*
D12*
X011100Y008600D03*
X015100Y007600D03*
D13*
X014100Y007600D03*
X010100Y008600D03*
D14*
X010600Y006360D02*
X010600Y005840D01*
X011600Y005840D02*
X011600Y006360D01*
X012600Y006360D02*
X012600Y005840D01*
X013600Y005840D02*
X013600Y006360D01*
X013600Y003360D02*
X013600Y002840D01*
X012600Y002840D02*
X012600Y003360D01*
X011600Y003360D02*
X011600Y002840D01*
X010600Y002840D02*
X010600Y003360D01*
X008600Y003360D02*
X008600Y002840D01*
X007600Y002840D02*
X007600Y003360D01*
X006600Y003360D02*
X006600Y002840D01*
X005600Y002840D02*
X005600Y003360D01*
X005600Y005840D02*
X005600Y006360D01*
X006600Y006360D02*
X006600Y005840D01*
X007600Y005840D02*
X007600Y006360D01*
X008600Y006360D02*
X008600Y005840D01*
M02*
