%
M48
M72
T01C0.0276
T02C0.0320
T03C0.0354
T04C0.0400
%
T01
X10100Y8600
X11100Y8600
X14100Y7600
X15100Y7600
T02
X5600Y3100
X6600Y3100
X7600Y3100
X8600Y3100
X10600Y3100
X11600Y3100
X12600Y3100
X13600Y3100
X13600Y6100
X12600Y6100
X11600Y6100
X10600Y6100
X8600Y6100
X7600Y6100
X6600Y6100
X5600Y6100
T03
X5600Y12600
X7100Y14600
X8600Y12600
X10100Y14600
X11600Y14600
X11600Y12600
X14600Y14600
X2600Y12600
T04
X5100Y10600
X5100Y9100
X7100Y10600
X9100Y10600
X10600Y10600
X7600Y8600
X14100Y10600
X14100Y12600
M30
