G75*
G70*
%OFA0B0*%
%FSLAX24Y24*%
%IPPOS*%
%LPD*%
%AMOC8*
5,1,8,0,0,1.08239X$1,22.5*
%
%ADD10C,0.0080*%
%ADD11C,0.0060*%
D10*
X007350Y008100D02*
X007850Y008100D01*
X008100Y008350D01*
X008100Y008850D01*
X007850Y009100D01*
X007350Y009100D01*
X007100Y008850D01*
X007100Y008350D01*
X007350Y008100D01*
X005600Y008850D02*
X005600Y009350D01*
X005350Y009600D01*
X004850Y009600D01*
X004600Y009350D01*
X004600Y008850D01*
X004850Y008600D01*
X005350Y008600D01*
X005600Y008850D01*
X005350Y010100D02*
X004850Y010100D01*
X004600Y010350D01*
X004600Y010850D01*
X004850Y011100D01*
X005350Y011100D01*
X005600Y010850D01*
X005600Y010350D01*
X005350Y010100D01*
X006600Y010350D02*
X006850Y010100D01*
X007350Y010100D01*
X007600Y010350D01*
X007600Y010850D01*
X007350Y011100D01*
X006850Y011100D01*
X006600Y010850D01*
X006600Y010350D01*
X008600Y010350D02*
X008850Y010100D01*
X009350Y010100D01*
X009600Y010350D01*
X009600Y010850D01*
X009350Y011100D01*
X008850Y011100D01*
X008600Y010850D01*
X008600Y010350D01*
X009900Y009150D02*
X010300Y009150D01*
X009616Y008600D02*
X009618Y008662D01*
X009624Y008725D01*
X009634Y008786D01*
X009648Y008847D01*
X009665Y008907D01*
X009686Y008966D01*
X009712Y009023D01*
X009740Y009078D01*
X009772Y009132D01*
X009808Y009183D01*
X009846Y009233D01*
X009888Y009279D01*
X009932Y009323D01*
X009980Y009364D01*
X010029Y009402D01*
X010081Y009436D01*
X010135Y009467D01*
X010191Y009495D01*
X010249Y009519D01*
X010308Y009540D01*
X010368Y009556D01*
X010429Y009569D01*
X010491Y009578D01*
X010553Y009583D01*
X010616Y009584D01*
X010678Y009581D01*
X010740Y009574D01*
X010802Y009563D01*
X010862Y009548D01*
X010922Y009530D01*
X010980Y009508D01*
X011037Y009482D01*
X011092Y009452D01*
X011145Y009419D01*
X011196Y009383D01*
X011244Y009344D01*
X011290Y009301D01*
X011333Y009256D01*
X011373Y009208D01*
X011410Y009158D01*
X011444Y009105D01*
X011475Y009051D01*
X011501Y008995D01*
X011525Y008937D01*
X011544Y008877D01*
X011560Y008817D01*
X011572Y008755D01*
X011580Y008694D01*
X011584Y008631D01*
X011584Y008569D01*
X011580Y008506D01*
X011572Y008445D01*
X011560Y008383D01*
X011544Y008323D01*
X011525Y008263D01*
X011501Y008205D01*
X011475Y008149D01*
X011444Y008095D01*
X011410Y008042D01*
X011373Y007992D01*
X011333Y007944D01*
X011290Y007899D01*
X011244Y007856D01*
X011196Y007817D01*
X011145Y007781D01*
X011092Y007748D01*
X011037Y007718D01*
X010980Y007692D01*
X010922Y007670D01*
X010862Y007652D01*
X010802Y007637D01*
X010740Y007626D01*
X010678Y007619D01*
X010616Y007616D01*
X010553Y007617D01*
X010491Y007622D01*
X010429Y007631D01*
X010368Y007644D01*
X010308Y007660D01*
X010249Y007681D01*
X010191Y007705D01*
X010135Y007733D01*
X010081Y007764D01*
X010029Y007798D01*
X009980Y007836D01*
X009932Y007877D01*
X009888Y007921D01*
X009846Y007967D01*
X009808Y008017D01*
X009772Y008068D01*
X009740Y008122D01*
X009712Y008177D01*
X009686Y008234D01*
X009665Y008293D01*
X009648Y008353D01*
X009634Y008414D01*
X009624Y008475D01*
X009618Y008538D01*
X009616Y008600D01*
X010350Y010100D02*
X010850Y010100D01*
X011100Y010350D01*
X011100Y010850D01*
X010850Y011100D01*
X010350Y011100D01*
X010100Y010850D01*
X010100Y010350D01*
X010350Y010100D01*
X011100Y012300D02*
X009100Y012300D01*
X009100Y012600D01*
X009000Y012600D01*
X009100Y012600D02*
X009100Y012900D01*
X011100Y012900D01*
X011100Y012600D01*
X011200Y012600D01*
X011100Y012600D02*
X011100Y012300D01*
X012100Y014300D02*
X012100Y014600D01*
X012000Y014600D01*
X012100Y014600D02*
X012100Y014900D01*
X014100Y014900D01*
X014100Y014600D01*
X014200Y014600D01*
X014100Y014600D02*
X014100Y014300D01*
X012100Y014300D01*
X013600Y012850D02*
X013600Y012350D01*
X013850Y012100D01*
X014350Y012100D01*
X014600Y012350D01*
X014600Y012850D01*
X014350Y013100D01*
X013850Y013100D01*
X013600Y012850D01*
X013850Y011100D02*
X013600Y010850D01*
X013600Y010350D01*
X013850Y010100D01*
X014350Y010100D01*
X014600Y010350D01*
X014600Y010850D01*
X014350Y011100D01*
X013850Y011100D01*
X013900Y008150D02*
X014300Y008150D01*
X013616Y007600D02*
X013618Y007662D01*
X013624Y007725D01*
X013634Y007786D01*
X013648Y007847D01*
X013665Y007907D01*
X013686Y007966D01*
X013712Y008023D01*
X013740Y008078D01*
X013772Y008132D01*
X013808Y008183D01*
X013846Y008233D01*
X013888Y008279D01*
X013932Y008323D01*
X013980Y008364D01*
X014029Y008402D01*
X014081Y008436D01*
X014135Y008467D01*
X014191Y008495D01*
X014249Y008519D01*
X014308Y008540D01*
X014368Y008556D01*
X014429Y008569D01*
X014491Y008578D01*
X014553Y008583D01*
X014616Y008584D01*
X014678Y008581D01*
X014740Y008574D01*
X014802Y008563D01*
X014862Y008548D01*
X014922Y008530D01*
X014980Y008508D01*
X015037Y008482D01*
X015092Y008452D01*
X015145Y008419D01*
X015196Y008383D01*
X015244Y008344D01*
X015290Y008301D01*
X015333Y008256D01*
X015373Y008208D01*
X015410Y008158D01*
X015444Y008105D01*
X015475Y008051D01*
X015501Y007995D01*
X015525Y007937D01*
X015544Y007877D01*
X015560Y007817D01*
X015572Y007755D01*
X015580Y007694D01*
X015584Y007631D01*
X015584Y007569D01*
X015580Y007506D01*
X015572Y007445D01*
X015560Y007383D01*
X015544Y007323D01*
X015525Y007263D01*
X015501Y007205D01*
X015475Y007149D01*
X015444Y007095D01*
X015410Y007042D01*
X015373Y006992D01*
X015333Y006944D01*
X015290Y006899D01*
X015244Y006856D01*
X015196Y006817D01*
X015145Y006781D01*
X015092Y006748D01*
X015037Y006718D01*
X014980Y006692D01*
X014922Y006670D01*
X014862Y006652D01*
X014802Y006637D01*
X014740Y006626D01*
X014678Y006619D01*
X014616Y006616D01*
X014553Y006617D01*
X014491Y006622D01*
X014429Y006631D01*
X014368Y006644D01*
X014308Y006660D01*
X014249Y006681D01*
X014191Y006705D01*
X014135Y006733D01*
X014081Y006764D01*
X014029Y006798D01*
X013980Y006836D01*
X013932Y006877D01*
X013888Y006921D01*
X013846Y006967D01*
X013808Y007017D01*
X013772Y007068D01*
X013740Y007122D01*
X013712Y007177D01*
X013686Y007234D01*
X013665Y007293D01*
X013648Y007353D01*
X013634Y007414D01*
X013624Y007475D01*
X013618Y007538D01*
X013616Y007600D01*
X009600Y014300D02*
X007600Y014300D01*
X007600Y014600D01*
X007500Y014600D01*
X007600Y014600D02*
X007600Y014900D01*
X009600Y014900D01*
X009600Y014600D01*
X009700Y014600D01*
X009600Y014600D02*
X009600Y014300D01*
X005200Y012600D02*
X005100Y012600D01*
X005100Y012300D01*
X003100Y012300D01*
X003100Y012600D01*
X003000Y012600D01*
X003100Y012600D02*
X003100Y012900D01*
X005100Y012900D01*
X005100Y012600D01*
D11*
X005100Y004200D02*
X005100Y003450D01*
X009100Y003450D01*
X009100Y005750D01*
X005100Y005750D01*
X005100Y005000D01*
X005139Y004998D01*
X005178Y004992D01*
X005216Y004983D01*
X005253Y004970D01*
X005289Y004953D01*
X005322Y004933D01*
X005354Y004909D01*
X005383Y004883D01*
X005409Y004854D01*
X005433Y004822D01*
X005453Y004789D01*
X005470Y004753D01*
X005483Y004716D01*
X005492Y004678D01*
X005498Y004639D01*
X005500Y004600D01*
X005498Y004561D01*
X005492Y004522D01*
X005483Y004484D01*
X005470Y004447D01*
X005453Y004411D01*
X005433Y004378D01*
X005409Y004346D01*
X005383Y004317D01*
X005354Y004291D01*
X005322Y004267D01*
X005289Y004247D01*
X005253Y004230D01*
X005216Y004217D01*
X005178Y004208D01*
X005139Y004202D01*
X005100Y004200D01*
X010100Y004200D02*
X010100Y003450D01*
X014100Y003450D01*
X014100Y005750D01*
X010100Y005750D01*
X010100Y005000D01*
X010139Y004998D01*
X010178Y004992D01*
X010216Y004983D01*
X010253Y004970D01*
X010289Y004953D01*
X010322Y004933D01*
X010354Y004909D01*
X010383Y004883D01*
X010409Y004854D01*
X010433Y004822D01*
X010453Y004789D01*
X010470Y004753D01*
X010483Y004716D01*
X010492Y004678D01*
X010498Y004639D01*
X010500Y004600D01*
X010498Y004561D01*
X010492Y004522D01*
X010483Y004484D01*
X010470Y004447D01*
X010453Y004411D01*
X010433Y004378D01*
X010409Y004346D01*
X010383Y004317D01*
X010354Y004291D01*
X010322Y004267D01*
X010289Y004247D01*
X010253Y004230D01*
X010216Y004217D01*
X010178Y004208D01*
X010139Y004202D01*
X010100Y004200D01*
X010123Y012480D02*
X010067Y012537D01*
X010293Y012764D01*
X010293Y012537D01*
X010237Y012480D01*
X010123Y012480D01*
X010067Y012537D02*
X010067Y012764D01*
X010123Y012820D01*
X010237Y012820D01*
X010293Y012764D01*
X010435Y012820D02*
X010435Y012480D01*
X010435Y012593D02*
X010605Y012707D01*
X010435Y012593D02*
X010605Y012480D01*
X009925Y012537D02*
X009925Y012764D01*
X009868Y012820D01*
X009755Y012820D01*
X009698Y012764D01*
X009698Y012707D01*
X009755Y012650D01*
X009925Y012650D01*
X009925Y012537D02*
X009868Y012480D01*
X009755Y012480D01*
X009698Y012537D01*
X009557Y012537D02*
X009500Y012480D01*
X009387Y012480D01*
X009330Y012537D01*
X009443Y012650D02*
X009500Y012650D01*
X009557Y012593D01*
X009557Y012537D01*
X009500Y012650D02*
X009557Y012707D01*
X009557Y012764D01*
X009500Y012820D01*
X009387Y012820D01*
X009330Y012764D01*
X009105Y014480D02*
X008935Y014593D01*
X009105Y014707D01*
X008935Y014820D02*
X008935Y014480D01*
X008793Y014537D02*
X008737Y014480D01*
X008623Y014480D01*
X008567Y014537D01*
X008793Y014764D01*
X008793Y014537D01*
X008567Y014537D02*
X008567Y014764D01*
X008623Y014820D01*
X008737Y014820D01*
X008793Y014764D01*
X008425Y014764D02*
X008425Y014537D01*
X008368Y014480D01*
X008255Y014480D01*
X008198Y014537D01*
X008425Y014764D01*
X008368Y014820D01*
X008255Y014820D01*
X008198Y014764D01*
X008198Y014537D01*
X008057Y014480D02*
X007830Y014480D01*
X008057Y014707D01*
X008057Y014764D01*
X008000Y014820D01*
X007887Y014820D01*
X007830Y014764D01*
X004605Y012707D02*
X004435Y012593D01*
X004605Y012480D01*
X004435Y012480D02*
X004435Y012820D01*
X004293Y012764D02*
X004067Y012537D01*
X004123Y012480D01*
X004237Y012480D01*
X004293Y012537D01*
X004293Y012764D01*
X004237Y012820D01*
X004123Y012820D01*
X004067Y012764D01*
X004067Y012537D01*
X003925Y012537D02*
X003868Y012480D01*
X003755Y012480D01*
X003698Y012537D01*
X003925Y012764D01*
X003925Y012537D01*
X003925Y012764D02*
X003868Y012820D01*
X003755Y012820D01*
X003698Y012764D01*
X003698Y012537D01*
X003557Y012480D02*
X003330Y012480D01*
X003443Y012480D02*
X003443Y012820D01*
X003330Y012707D01*
X012330Y014480D02*
X012557Y014480D01*
X012443Y014480D02*
X012443Y014820D01*
X012330Y014707D01*
X012698Y014650D02*
X012812Y014707D01*
X012868Y014707D01*
X012925Y014650D01*
X012925Y014537D01*
X012868Y014480D01*
X012755Y014480D01*
X012698Y014537D01*
X012698Y014650D02*
X012698Y014820D01*
X012925Y014820D01*
X013067Y014764D02*
X013123Y014820D01*
X013237Y014820D01*
X013293Y014764D01*
X013067Y014537D01*
X013123Y014480D01*
X013237Y014480D01*
X013293Y014537D01*
X013293Y014764D01*
X013435Y014820D02*
X013435Y014480D01*
X013435Y014593D02*
X013605Y014707D01*
X013435Y014593D02*
X013605Y014480D01*
X013067Y014537D02*
X013067Y014764D01*
M02*
