G75*
G70*
%OFA0B0*%
%FSLAX24Y24*%
%IPPOS*%
%LPD*%
%AMOC8*
5,1,8,0,0,1.08239X$1,22.5*
%
%ADD10C,0.0000*%
%ADD11C,0.0740*%
%ADD12C,0.0650*%
%ADD13C,0.0520*%
%ADD14OC8,0.0660*%
D10*
X000100Y000100D02*
X000100Y021470D01*
X021592Y021470D01*
X021592Y000100D01*
X000100Y000100D01*
D11*
X009600Y008100D03*
X012600Y008100D03*
X015600Y008100D03*
X016600Y011600D03*
X014100Y011600D03*
X012100Y013100D03*
X012100Y016600D03*
X012100Y018600D03*
X009100Y018600D03*
X015100Y016600D03*
X017100Y019100D03*
X020100Y019100D03*
X019100Y011600D03*
X004600Y012600D03*
D12*
X017600Y016600D03*
X018600Y016600D03*
X019600Y016600D03*
X020600Y016600D03*
D13*
X020100Y008360D02*
X020100Y007840D01*
X019100Y007840D02*
X019100Y008360D01*
X018100Y008360D02*
X018100Y007840D01*
X018100Y005860D02*
X018100Y005340D01*
X017100Y005340D02*
X017100Y005860D01*
X016100Y005860D02*
X016100Y005340D01*
X015100Y005340D02*
X015100Y005860D01*
X014100Y005860D02*
X014100Y005340D01*
X014100Y002860D02*
X014100Y002340D01*
X015100Y002340D02*
X015100Y002860D01*
X016100Y002860D02*
X016100Y002340D01*
X017100Y002340D02*
X017100Y002860D01*
X018100Y002860D02*
X018100Y002340D01*
X019100Y002340D02*
X019100Y002860D01*
X020100Y002860D02*
X020100Y002340D01*
X020100Y005340D02*
X020100Y005860D01*
X019100Y005860D02*
X019100Y005340D01*
X011600Y003360D02*
X011600Y002840D01*
X010600Y002840D02*
X010600Y003360D01*
X009600Y003360D02*
X009600Y002840D01*
D14*
X009100Y014100D03*
X009600Y014850D03*
X010100Y014100D03*
X015100Y014100D03*
X015600Y014850D03*
X016100Y014100D03*
M02*
