G75*
G70*
%OFA0B0*%
%FSLAX24Y24*%
%IPPOS*%
%LPD*%
%AMOC8*
5,1,8,0,0,1.08239X$1,22.5*
%
%ADD10C,0.0740*%
%ADD11C,0.0650*%
%ADD12C,0.0520*%
%ADD13OC8,0.0660*%
%ADD14C,0.0100*%
%ADD15C,0.0240*%
D10*
X009600Y008100D03*
X012600Y008100D03*
X015600Y008100D03*
X016600Y011600D03*
X014100Y011600D03*
X012100Y013100D03*
X012100Y016600D03*
X012100Y018600D03*
X009100Y018600D03*
X015100Y016600D03*
X017100Y019100D03*
X020100Y019100D03*
X019100Y011600D03*
X004600Y012600D03*
D11*
X017600Y016600D03*
X018600Y016600D03*
X019600Y016600D03*
X020600Y016600D03*
D12*
X020100Y008360D02*
X020100Y007840D01*
X019100Y007840D02*
X019100Y008360D01*
X018100Y008360D02*
X018100Y007840D01*
X018100Y005860D02*
X018100Y005340D01*
X017100Y005340D02*
X017100Y005860D01*
X016100Y005860D02*
X016100Y005340D01*
X015100Y005340D02*
X015100Y005860D01*
X014100Y005860D02*
X014100Y005340D01*
X014100Y002860D02*
X014100Y002340D01*
X015100Y002340D02*
X015100Y002860D01*
X016100Y002860D02*
X016100Y002340D01*
X017100Y002340D02*
X017100Y002860D01*
X018100Y002860D02*
X018100Y002340D01*
X019100Y002340D02*
X019100Y002860D01*
X020100Y002860D02*
X020100Y002340D01*
X020100Y005340D02*
X020100Y005860D01*
X019100Y005860D02*
X019100Y005340D01*
X011600Y003360D02*
X011600Y002840D01*
X010600Y002840D02*
X010600Y003360D01*
X009600Y003360D02*
X009600Y002840D01*
D13*
X009100Y014100D03*
X009600Y014850D03*
X010100Y014100D03*
X015100Y014100D03*
X015600Y014850D03*
X016100Y014100D03*
D14*
X001600Y015600D02*
X001100Y001600D01*
X009600Y002100D01*
X010100Y002600D01*
X010100Y004600D01*
X013600Y004600D01*
X014100Y004100D01*
X014600Y004100D01*
X016100Y002600D01*
X015100Y002600D02*
X014100Y002600D01*
X013600Y003100D01*
X013600Y004100D01*
X011600Y004100D01*
X010600Y003100D01*
X010600Y001100D01*
X018600Y001100D01*
X019600Y002100D01*
X019600Y003100D01*
X020600Y004100D01*
X020600Y015600D01*
X019600Y016600D01*
X019600Y017600D02*
X020600Y016600D01*
X019600Y017600D02*
X019600Y018100D01*
X019100Y020100D01*
X016100Y020100D01*
X015600Y018100D01*
X017100Y018100D01*
X018100Y017100D01*
X018100Y015600D01*
X015100Y016600D01*
X015600Y014850D02*
X015600Y014600D01*
X015100Y014100D01*
X013600Y012600D01*
X013100Y011100D01*
X012600Y010600D01*
X009600Y010600D01*
X009600Y012100D01*
X003100Y014100D01*
X002600Y008600D01*
X009600Y009600D01*
X011600Y007100D01*
X016100Y007100D01*
X016600Y007600D01*
X018100Y008100D01*
X018100Y009100D02*
X015600Y009100D01*
X015600Y008100D01*
X018100Y009100D02*
X019100Y008100D01*
X019100Y013600D02*
X019100Y018100D01*
X017100Y019100D01*
X016100Y020100D02*
X009100Y020100D01*
X009100Y018600D01*
X010600Y016100D02*
X012100Y018600D01*
X017600Y016600D01*
X016100Y014100D02*
X016100Y013600D01*
X012600Y014600D02*
X012100Y016600D01*
X010600Y016100D02*
X001600Y015600D01*
X002100Y014600D02*
X009100Y014600D01*
X009600Y014850D01*
X009100Y014100D02*
X003100Y014100D01*
X002100Y014600D02*
X002100Y004100D01*
X009600Y003100D01*
X012100Y013100D02*
X012600Y014600D01*
D15*
X013100Y013600D02*
X015100Y015600D01*
X016600Y015600D01*
X016100Y014100D01*
X016100Y013600D02*
X014100Y011600D01*
X013100Y012100D02*
X013100Y013600D01*
X013100Y012100D02*
X011100Y011100D01*
X011100Y012600D01*
X010100Y014100D01*
X009100Y010100D02*
X004600Y012600D01*
X009100Y010100D02*
X013600Y010100D01*
X018600Y015100D01*
X018600Y016600D01*
X018600Y013600D02*
X019100Y013600D01*
X020100Y013600D01*
X020100Y008100D01*
X020100Y006600D01*
X019600Y006100D01*
X019600Y005100D01*
X018600Y004100D01*
X018600Y001600D01*
X013100Y001600D01*
X011600Y003100D01*
X014100Y004600D02*
X010100Y007600D01*
X009600Y008100D01*
X014100Y004600D02*
X015100Y004600D01*
X017100Y002600D01*
X017100Y005600D02*
X018600Y007100D01*
X019600Y007100D01*
X019600Y011100D01*
X019100Y011600D01*
X018600Y013600D02*
X016600Y011600D01*
M02*
