%
M48
M72
T01C0.0276
T02C0.0320
T03C0.0354
T04C0.0400
%
T01
X17600Y16600
X18600Y16600
X19600Y16600
X20600Y16600
T02
X9600Y3100
X10600Y3100
X11600Y3100
X14100Y2600
X15100Y2600
X16100Y2600
X17100Y2600
X18100Y2600
X19100Y2600
X20100Y2600
X20100Y5600
X19100Y5600
X18100Y5600
X17100Y5600
X16100Y5600
X15100Y5600
X14100Y5600
X18100Y8100
X19100Y8100
X20100Y8100
X16100Y14100
X15600Y14850
X15100Y14100
X10100Y14100
X9600Y14850
X9100Y14100
T03
X12100Y16600
X12100Y18600
X9100Y18600
X15100Y16600
X17100Y19100
X20100Y19100
T04
X19100Y11600
X16600Y11600
X14100Y11600
X12100Y13100
X12600Y8100
X15600Y8100
X9600Y8100
X4600Y12600
M30
