%
M48
M72
T01C0.0240
T02C0.0320
T03C0.0400
%
T01
X7600Y7100
X17600Y17600
X14100Y18100
T02
X7100Y2100
X8100Y2100
X9100Y2100
X10100Y2100
X11100Y2100
X12100Y2100
X13100Y2100
X14100Y2100
X15100Y2100
X16100Y2100
X17100Y2100
X18100Y2100
X19100Y2100
X20100Y2100
X20100Y8100
X19100Y8100
X18100Y8100
X17100Y8100
X16100Y8100
X15100Y8100
X14100Y8100
X13100Y8100
X12100Y8100
X11100Y8100
X10100Y8100
X9100Y8100
X8100Y8100
X7100Y8100
X7100Y10100
X8100Y10100
X9100Y10100
X10100Y10100
X11100Y10100
X12100Y10100
X13100Y10100
X14100Y10100
X15100Y10100
X16100Y10100
X17100Y10100
X18100Y10100
X19100Y10100
X20100Y10100
X20100Y16100
X19100Y16100
X18100Y16100
X17100Y16100
X16100Y16100
X15100Y16100
X14100Y16100
X13100Y16100
X12100Y16100
X11100Y16100
X10100Y16100
X9100Y16100
X8100Y16100
X7100Y16100
T03
X6600Y19600
X7100Y21600
X4600Y21600
X3600Y20100
X1100Y20100
X4100Y24600
X6600Y24600
X9100Y24600
X9600Y21600
X9600Y19600
X12100Y19600
X12600Y21600
X15100Y19100
X16100Y21600
X18600Y21600
X21600Y21600
X22100Y27600
X24600Y27600
X19600Y27600
X17100Y27600
X3600Y10600
M30
