%
M48
M72
T01C0.0276
T02C0.0320
T03C0.0354
T04C0.0400
%
T01
X18600Y18600
X19600Y18600
X20600Y18600
X21600Y18600
X42600Y18600
X43600Y18600
X44600Y18600
X45600Y18600
X66100Y19100
X67100Y19100
X68100Y19100
X69100Y19100
X89600Y19600
X90600Y19600
X91600Y19600
X92600Y19600
X92100Y42600
X91100Y42600
X90100Y42600
X89100Y42600
X69100Y42100
X68100Y42100
X67100Y42100
X66100Y42100
X45600Y42100
X44600Y42100
X43600Y42100
X42600Y42100
X22100Y42100
X21100Y42100
X20100Y42100
X19100Y42100
X19100Y67600
X20100Y67600
X21100Y67600
X22100Y67600
X42100Y68100
X43100Y68100
X44100Y68100
X45100Y68100
X65600Y68600
X66600Y68600
X67600Y68600
X68600Y68600
X89600Y68600
X90600Y68600
X91600Y68600
X92600Y68600
T02
X10600Y5100
X11600Y5100
X12600Y5100
X15100Y4600
X16100Y4600
X17100Y4600
X18100Y4600
X19100Y4600
X20100Y4600
X21100Y4600
X21100Y7600
X20100Y7600
X19100Y7600
X18100Y7600
X17100Y7600
X16100Y7600
X15100Y7600
X19100Y10100
X20100Y10100
X21100Y10100
X17100Y16100
X16600Y16850
X16100Y16100
X11100Y16100
X10600Y16850
X10100Y16100
X15600Y28100
X16600Y28100
X17600Y28100
X18600Y28100
X19600Y28100
X20600Y28100
X21600Y28100
X21600Y31100
X20600Y31100
X19600Y31100
X18600Y31100
X17600Y31100
X16600Y31100
X15600Y31100
X13100Y28600
X12100Y28600
X11100Y28600
X19600Y33600
X20600Y33600
X21600Y33600
X17600Y39600
X17100Y40350
X16600Y39600
X11600Y39600
X11100Y40350
X10600Y39600
X15600Y53600
X16600Y53600
X17600Y53600
X18600Y53600
X19600Y53600
X20600Y53600
X21600Y53600
X21600Y56600
X20600Y56600
X19600Y56600
X18600Y56600
X17600Y56600
X16600Y56600
X15600Y56600
X13100Y54100
X12100Y54100
X11100Y54100
X19600Y59100
X20600Y59100
X21600Y59100
X17600Y65100
X17100Y65850
X16600Y65100
X11600Y65100
X11100Y65850
X10600Y65100
X33600Y65600
X34100Y66350
X34600Y65600
X39600Y65600
X40100Y66350
X40600Y65600
X42600Y59600
X43600Y59600
X44600Y59600
X44600Y57100
X43600Y57100
X42600Y57100
X41600Y57100
X40600Y57100
X39600Y57100
X38600Y57100
X38600Y54100
X39600Y54100
X40600Y54100
X41600Y54100
X42600Y54100
X43600Y54100
X44600Y54100
X36100Y54600
X35100Y54600
X34100Y54600
X34600Y40350
X34100Y39600
X35100Y39600
X40100Y39600
X40600Y40350
X41100Y39600
X43100Y33600
X44100Y33600
X45100Y33600
X45100Y31100
X44100Y31100
X43100Y31100
X42100Y31100
X41100Y31100
X40100Y31100
X39100Y31100
X36600Y28600
X35600Y28600
X34600Y28600
X39100Y28100
X40100Y28100
X41100Y28100
X42100Y28100
X43100Y28100
X44100Y28100
X45100Y28100
X58100Y28600
X59100Y28600
X60100Y28600
X62600Y28100
X63600Y28100
X64600Y28100
X65600Y28100
X66600Y28100
X67600Y28100
X68600Y28100
X68600Y31100
X67600Y31100
X66600Y31100
X65600Y31100
X64600Y31100
X63600Y31100
X62600Y31100
X66600Y33600
X67600Y33600
X68600Y33600
X64600Y39600
X64100Y40350
X63600Y39600
X58600Y39600
X58100Y40350
X57600Y39600
X62100Y54600
X63100Y54600
X64100Y54600
X65100Y54600
X66100Y54600
X67100Y54600
X68100Y54600
X68100Y57600
X67100Y57600
X66100Y57600
X65100Y57600
X64100Y57600
X63100Y57600
X62100Y57600
X59600Y55100
X58600Y55100
X57600Y55100
X66100Y60100
X67100Y60100
X68100Y60100
X64100Y66100
X63600Y66850
X63100Y66100
X58100Y66100
X57600Y66850
X57100Y66100
X81100Y66100
X81600Y66850
X82100Y66100
X87100Y66100
X87600Y66850
X88100Y66100
X90100Y60100
X91100Y60100
X92100Y60100
X92100Y57600
X91100Y57600
X90100Y57600
X89100Y57600
X88100Y57600
X87100Y57600
X86100Y57600
X83600Y55100
X82600Y55100
X81600Y55100
X86100Y54600
X87100Y54600
X88100Y54600
X89100Y54600
X90100Y54600
X91100Y54600
X92100Y54600
X87100Y40850
X86600Y40100
X87600Y40100
X81600Y40100
X81100Y40850
X80600Y40100
X89600Y34100
X90600Y34100
X91600Y34100
X91600Y31600
X90600Y31600
X89600Y31600
X88600Y31600
X87600Y31600
X86600Y31600
X85600Y31600
X85600Y28600
X86600Y28600
X87600Y28600
X88600Y28600
X89600Y28600
X90600Y28600
X91600Y28600
X83100Y29100
X82100Y29100
X81100Y29100
X81600Y17850
X81100Y17100
X82100Y17100
X87100Y17100
X87600Y17850
X88100Y17100
X90100Y11100
X91100Y11100
X92100Y11100
X92100Y8600
X91100Y8600
X90100Y8600
X89100Y8600
X88100Y8600
X87100Y8600
X86100Y8600
X83600Y6100
X82600Y6100
X81600Y6100
X86100Y5600
X87100Y5600
X88100Y5600
X89100Y5600
X90100Y5600
X91100Y5600
X92100Y5600
X68600Y5100
X67600Y5100
X66600Y5100
X65600Y5100
X64600Y5100
X63600Y5100
X62600Y5100
X60100Y5600
X59100Y5600
X58100Y5600
X62600Y8100
X63600Y8100
X64600Y8100
X65600Y8100
X66600Y8100
X67600Y8100
X68600Y8100
X68600Y10600
X67600Y10600
X66600Y10600
X64600Y16600
X64100Y17350
X63600Y16600
X58600Y16600
X58100Y17350
X57600Y16600
X45100Y10100
X44100Y10100
X43100Y10100
X43100Y7600
X42100Y7600
X41100Y7600
X40100Y7600
X39100Y7600
X39100Y4600
X40100Y4600
X41100Y4600
X42100Y4600
X43100Y4600
X44100Y4600
X45100Y4600
X45100Y7600
X44100Y7600
X36600Y5100
X35600Y5100
X34600Y5100
X34100Y16100
X34600Y16850
X35100Y16100
X40100Y16100
X40600Y16850
X41100Y16100
T03
X40100Y18600
X37100Y18600
X37100Y20600
X34100Y20600
X42100Y21100
X45100Y21100
X57600Y21100
X60600Y21100
X60600Y19100
X63600Y19100
X65600Y21600
X68600Y21600
X81100Y21600
X84100Y21600
X84100Y19600
X87100Y19600
X89100Y22100
X92100Y22100
X86600Y42600
X83600Y42600
X83600Y44600
X80600Y44600
X88600Y45100
X91600Y45100
X68600Y44600
X65600Y44600
X63600Y42100
X60600Y42100
X60600Y44100
X57600Y44100
X45100Y44600
X42100Y44600
X40100Y42100
X37100Y42100
X37100Y44100
X34100Y44100
X21600Y44600
X18600Y44600
X16600Y42100
X13600Y42100
X13600Y44100
X10600Y44100
X18100Y21100
X21100Y21100
X16100Y18600
X13100Y18600
X13100Y20600
X10100Y20600
X13600Y67600
X13600Y69600
X10600Y69600
X16600Y67600
X18600Y70100
X21600Y70100
X33600Y70100
X36600Y70100
X36600Y68100
X39600Y68100
X41600Y70600
X44600Y70600
X57100Y70600
X60100Y70600
X60100Y68600
X63100Y68600
X65100Y71100
X68100Y71100
X81100Y70600
X84100Y70600
X84100Y68600
X87100Y68600
X89100Y71100
X92100Y71100
T04
X84100Y65100
X86100Y63600
X88600Y63600
X91100Y63600
X87600Y60100
X84600Y60100
X81600Y60100
X76600Y64600
X67100Y63600
X64600Y63600
X62100Y63600
X60100Y65100
X60600Y60100
X57600Y60100
X63600Y60100
X52600Y64600
X43600Y63100
X41100Y63100
X38600Y63100
X36600Y64600
X37100Y59600
X34100Y59600
X29100Y64100
X20600Y62600
X18100Y62600
X15600Y62600
X13600Y64100
X14100Y59100
X11100Y59100
X17100Y59100
X6100Y63600
X13600Y38600
X15600Y37100
X18100Y37100
X20600Y37100
X17100Y33600
X14100Y33600
X11100Y33600
X6100Y38100
X29600Y38100
X34600Y33600
X37600Y33600
X40600Y33600
X41600Y37100
X39100Y37100
X37100Y38600
X44100Y37100
X53100Y38100
X58100Y33600
X61100Y33600
X64100Y33600
X65100Y37100
X62600Y37100
X60600Y38600
X67600Y37100
X76100Y38600
X81100Y34100
X84100Y34100
X87100Y34100
X88100Y37600
X85600Y37600
X83600Y39100
X90600Y37600
X84100Y16100
X86100Y14600
X88600Y14600
X91100Y14600
X87600Y11100
X84600Y11100
X81600Y11100
X76600Y15600
X67600Y14100
X65100Y14100
X62600Y14100
X60600Y15600
X61100Y10600
X58100Y10600
X64100Y10600
X53100Y15100
X44100Y13600
X41600Y13600
X39100Y13600
X37100Y15100
X37600Y10100
X34600Y10100
X40600Y10100
X29600Y14600
X20100Y13600
X17600Y13600
X15100Y13600
X13100Y15100
X13600Y10100
X10600Y10100
X16600Y10100
X5600Y14600
X40100Y59600
M30
