%
M48
M72
T01C0.0276
T02C0.0320
T03C0.0354
T04C0.0400
%
T01
X18600Y17600
X19600Y17600
X20600Y17600
X21600Y17600
X41600Y17600
X42600Y17600
X43600Y17600
X44600Y17600
X44600Y39100
X43600Y39100
X42600Y39100
X41600Y39100
X21600Y39100
X20600Y39100
X19600Y39100
X18600Y39100
T02
X10600Y4100
X11600Y4100
X12600Y4100
X15100Y3600
X16100Y3600
X17100Y3600
X18100Y3600
X19100Y3600
X20100Y3600
X21100Y3600
X21100Y6600
X20100Y6600
X19100Y6600
X18100Y6600
X17100Y6600
X16100Y6600
X15100Y6600
X19100Y9100
X20100Y9100
X21100Y9100
X17100Y15100
X16600Y15850
X16100Y15100
X11100Y15100
X10600Y15850
X10100Y15100
X15100Y25100
X16100Y25100
X17100Y25100
X18100Y25100
X19100Y25100
X20100Y25100
X21100Y25100
X21100Y28100
X20100Y28100
X19100Y28100
X18100Y28100
X17100Y28100
X16100Y28100
X15100Y28100
X12600Y25600
X11600Y25600
X10600Y25600
X19100Y30600
X20100Y30600
X21100Y30600
X17100Y36600
X16600Y37350
X16100Y36600
X11100Y36600
X10600Y37350
X10100Y36600
X33100Y36600
X33600Y37350
X34100Y36600
X39100Y36600
X39600Y37350
X40100Y36600
X42100Y30600
X43100Y30600
X44100Y30600
X44100Y28100
X43100Y28100
X42100Y28100
X41100Y28100
X40100Y28100
X39100Y28100
X38100Y28100
X35600Y25600
X34600Y25600
X33600Y25600
X38100Y25100
X39100Y25100
X40100Y25100
X41100Y25100
X42100Y25100
X43100Y25100
X44100Y25100
X39600Y15850
X39100Y15100
X40100Y15100
X34100Y15100
X33600Y15850
X33100Y15100
X38100Y6600
X39100Y6600
X40100Y6600
X41100Y6600
X42100Y6600
X43100Y6600
X44100Y6600
X44100Y9100
X43100Y9100
X42100Y9100
X42100Y3600
X41100Y3600
X40100Y3600
X39100Y3600
X38100Y3600
X35600Y4100
X34600Y4100
X33600Y4100
X43100Y3600
X44100Y3600
T03
X39100Y17600
X36100Y17600
X36100Y19600
X33100Y19600
X41100Y20100
X44100Y20100
X39100Y39100
X36100Y39100
X36100Y41100
X33100Y41100
X41100Y41600
X44100Y41600
X21100Y41600
X18100Y41600
X16100Y39100
X13100Y39100
X13100Y41100
X10100Y41100
X18100Y20100
X21100Y20100
X16100Y17600
X13100Y17600
X13100Y19600
X10100Y19600
T04
X13100Y14100
X15100Y12600
X17600Y12600
X20100Y12600
X16600Y9100
X13600Y9100
X10600Y9100
X5600Y13600
X10600Y30600
X13600Y30600
X16600Y30600
X17600Y34100
X20100Y34100
X15100Y34100
X13100Y35600
X5600Y35100
X28600Y35100
X33600Y30600
X36600Y30600
X39600Y30600
X40600Y34100
X43100Y34100
X38100Y34100
X36100Y35600
X36100Y14100
X38100Y12600
X40600Y12600
X43100Y12600
X39600Y9100
X36600Y9100
X33600Y9100
X28600Y13600
M30
