G75*
G70*
%OFA0B0*%
%FSLAX24Y24*%
%IPPOS*%
%LPD*%
%AMOC8*
5,1,8,0,0,1.08239X$1,22.5*
%
%ADD10C,0.0000*%
%ADD11C,0.0740*%
%ADD12C,0.0650*%
%ADD13C,0.0520*%
%ADD14OC8,0.0660*%
D10*
X000100Y000100D02*
X000100Y044470D01*
X047092Y044470D01*
X047092Y000100D01*
X000100Y000100D01*
D11*
X010600Y009100D03*
X013600Y009100D03*
X016600Y009100D03*
X017600Y012600D03*
X020100Y012600D03*
X015100Y012600D03*
X013100Y014100D03*
X013100Y017600D03*
X013100Y019600D03*
X010100Y019600D03*
X016100Y017600D03*
X018100Y020100D03*
X021100Y020100D03*
X028600Y013600D03*
X033600Y009100D03*
X036600Y009100D03*
X039600Y009100D03*
X040600Y012600D03*
X043100Y012600D03*
X038100Y012600D03*
X036100Y014100D03*
X036100Y017600D03*
X036100Y019600D03*
X033100Y019600D03*
X039100Y017600D03*
X041100Y020100D03*
X044100Y020100D03*
X039600Y030600D03*
X036600Y030600D03*
X033600Y030600D03*
X038100Y034100D03*
X036100Y035600D03*
X036100Y039100D03*
X036100Y041100D03*
X033100Y041100D03*
X039100Y039100D03*
X041100Y041600D03*
X044100Y041600D03*
X043100Y034100D03*
X040600Y034100D03*
X028600Y035100D03*
X021100Y041600D03*
X018100Y041600D03*
X016100Y039100D03*
X013100Y039100D03*
X013100Y041100D03*
X010100Y041100D03*
X013100Y035600D03*
X015100Y034100D03*
X017600Y034100D03*
X020100Y034100D03*
X016600Y030600D03*
X013600Y030600D03*
X010600Y030600D03*
X005600Y035100D03*
X005600Y013600D03*
D12*
X018600Y017600D03*
X019600Y017600D03*
X020600Y017600D03*
X021600Y017600D03*
X041600Y017600D03*
X042600Y017600D03*
X043600Y017600D03*
X044600Y017600D03*
X044600Y039100D03*
X043600Y039100D03*
X042600Y039100D03*
X041600Y039100D03*
X021600Y039100D03*
X020600Y039100D03*
X019600Y039100D03*
X018600Y039100D03*
D13*
X019100Y030860D02*
X019100Y030340D01*
X020100Y030340D02*
X020100Y030860D01*
X021100Y030860D02*
X021100Y030340D01*
X021100Y028360D02*
X021100Y027840D01*
X020100Y027840D02*
X020100Y028360D01*
X019100Y028360D02*
X019100Y027840D01*
X018100Y027840D02*
X018100Y028360D01*
X017100Y028360D02*
X017100Y027840D01*
X016100Y027840D02*
X016100Y028360D01*
X015100Y028360D02*
X015100Y027840D01*
X012600Y025860D02*
X012600Y025340D01*
X011600Y025340D02*
X011600Y025860D01*
X010600Y025860D02*
X010600Y025340D01*
X015100Y025360D02*
X015100Y024840D01*
X016100Y024840D02*
X016100Y025360D01*
X017100Y025360D02*
X017100Y024840D01*
X018100Y024840D02*
X018100Y025360D01*
X019100Y025360D02*
X019100Y024840D01*
X020100Y024840D02*
X020100Y025360D01*
X021100Y025360D02*
X021100Y024840D01*
X033600Y025340D02*
X033600Y025860D01*
X034600Y025860D02*
X034600Y025340D01*
X035600Y025340D02*
X035600Y025860D01*
X038100Y025360D02*
X038100Y024840D01*
X039100Y024840D02*
X039100Y025360D01*
X040100Y025360D02*
X040100Y024840D01*
X041100Y024840D02*
X041100Y025360D01*
X042100Y025360D02*
X042100Y024840D01*
X043100Y024840D02*
X043100Y025360D01*
X044100Y025360D02*
X044100Y024840D01*
X044100Y027840D02*
X044100Y028360D01*
X043100Y028360D02*
X043100Y027840D01*
X042100Y027840D02*
X042100Y028360D01*
X041100Y028360D02*
X041100Y027840D01*
X040100Y027840D02*
X040100Y028360D01*
X039100Y028360D02*
X039100Y027840D01*
X038100Y027840D02*
X038100Y028360D01*
X042100Y030340D02*
X042100Y030860D01*
X043100Y030860D02*
X043100Y030340D01*
X044100Y030340D02*
X044100Y030860D01*
X044100Y009360D02*
X044100Y008840D01*
X043100Y008840D02*
X043100Y009360D01*
X042100Y009360D02*
X042100Y008840D01*
X042100Y006860D02*
X042100Y006340D01*
X041100Y006340D02*
X041100Y006860D01*
X040100Y006860D02*
X040100Y006340D01*
X039100Y006340D02*
X039100Y006860D01*
X038100Y006860D02*
X038100Y006340D01*
X035600Y004360D02*
X035600Y003840D01*
X034600Y003840D02*
X034600Y004360D01*
X033600Y004360D02*
X033600Y003840D01*
X038100Y003860D02*
X038100Y003340D01*
X039100Y003340D02*
X039100Y003860D01*
X040100Y003860D02*
X040100Y003340D01*
X041100Y003340D02*
X041100Y003860D01*
X042100Y003860D02*
X042100Y003340D01*
X043100Y003340D02*
X043100Y003860D01*
X044100Y003860D02*
X044100Y003340D01*
X044100Y006340D02*
X044100Y006860D01*
X043100Y006860D02*
X043100Y006340D01*
X021100Y006340D02*
X021100Y006860D01*
X020100Y006860D02*
X020100Y006340D01*
X019100Y006340D02*
X019100Y006860D01*
X018100Y006860D02*
X018100Y006340D01*
X017100Y006340D02*
X017100Y006860D01*
X016100Y006860D02*
X016100Y006340D01*
X015100Y006340D02*
X015100Y006860D01*
X012600Y004360D02*
X012600Y003840D01*
X011600Y003840D02*
X011600Y004360D01*
X010600Y004360D02*
X010600Y003840D01*
X015100Y003860D02*
X015100Y003340D01*
X016100Y003340D02*
X016100Y003860D01*
X017100Y003860D02*
X017100Y003340D01*
X018100Y003340D02*
X018100Y003860D01*
X019100Y003860D02*
X019100Y003340D01*
X020100Y003340D02*
X020100Y003860D01*
X021100Y003860D02*
X021100Y003340D01*
X021100Y008840D02*
X021100Y009360D01*
X020100Y009360D02*
X020100Y008840D01*
X019100Y008840D02*
X019100Y009360D01*
D14*
X017100Y015100D03*
X016600Y015850D03*
X016100Y015100D03*
X011100Y015100D03*
X010600Y015850D03*
X010100Y015100D03*
X010100Y036600D03*
X010600Y037350D03*
X011100Y036600D03*
X016100Y036600D03*
X016600Y037350D03*
X017100Y036600D03*
X033100Y036600D03*
X033600Y037350D03*
X034100Y036600D03*
X039100Y036600D03*
X039600Y037350D03*
X040100Y036600D03*
X039600Y015850D03*
X039100Y015100D03*
X040100Y015100D03*
X034100Y015100D03*
X033600Y015850D03*
X033100Y015100D03*
M02*
