G75*
G70*
%OFA0B0*%
%FSLAX24Y24*%
%IPPOS*%
%LPD*%
%AMOC8*
5,1,8,0,0,1.08239X$1,22.5*
%
%ADD10C,0.0740*%
%ADD11R,0.0650X0.0650*%
%ADD12C,0.0650*%
%ADD13C,0.0520*%
%ADD14C,0.0100*%
%ADD15C,0.0240*%
D10*
X024600Y015600D03*
X024600Y017100D03*
X026600Y017100D03*
X028600Y017100D03*
X030100Y017100D03*
X031100Y019100D03*
X033600Y019100D03*
X033600Y017100D03*
X028100Y019100D03*
X026600Y021100D03*
X029600Y021100D03*
X031100Y021100D03*
X034100Y021100D03*
X025100Y019100D03*
X022100Y019100D03*
X027100Y015100D03*
D11*
X030600Y015100D03*
X034600Y014100D03*
D12*
X033600Y014100D03*
X029600Y015100D03*
D13*
X030100Y012860D02*
X030100Y012340D01*
X031100Y012340D02*
X031100Y012860D01*
X032100Y012860D02*
X032100Y012340D01*
X033100Y012340D02*
X033100Y012860D01*
X033100Y009860D02*
X033100Y009340D01*
X032100Y009340D02*
X032100Y009860D01*
X031100Y009860D02*
X031100Y009340D01*
X030100Y009340D02*
X030100Y009860D01*
X028100Y009860D02*
X028100Y009340D01*
X027100Y009340D02*
X027100Y009860D01*
X026100Y009860D02*
X026100Y009340D01*
X025100Y009340D02*
X025100Y009860D01*
X025100Y012340D02*
X025100Y012860D01*
X026100Y012860D02*
X026100Y012340D01*
X027100Y012340D02*
X027100Y012860D01*
X028100Y012860D02*
X028100Y012340D01*
D14*
X024600Y008100D02*
X020600Y008600D01*
X020600Y020100D01*
X025600Y020100D01*
X025600Y019100D01*
X025100Y019100D01*
X028100Y019100D01*
X030100Y018600D02*
X031100Y017600D01*
X030600Y015100D01*
X032600Y015100D02*
X031100Y013100D01*
X031100Y012600D01*
X031100Y011600D01*
X028100Y011600D01*
X026100Y009600D01*
X024600Y008100D02*
X031600Y008100D01*
X031600Y013100D01*
X032100Y013600D01*
X033600Y014100D01*
X034600Y014100D02*
X033600Y015100D01*
X033600Y017100D01*
X033600Y019100D01*
X031100Y020100D02*
X030600Y020100D01*
X030100Y018600D01*
X031100Y020100D02*
X031100Y021100D01*
X029600Y021100D02*
X029100Y021600D01*
X029600Y023100D01*
X032600Y023100D01*
X032600Y017100D01*
X032600Y015100D01*
X032100Y013600D02*
X033100Y012600D01*
X032600Y012100D02*
X032600Y009100D01*
X033100Y008600D01*
X036100Y008600D01*
X036100Y021100D01*
X034100Y021100D01*
X036100Y021100D02*
X035600Y024100D01*
X027600Y024100D01*
X026600Y021100D01*
X032100Y012600D02*
X032600Y012100D01*
D15*
X030100Y012600D02*
X031600Y014600D01*
X031600Y017100D01*
X032100Y017100D01*
X031100Y019100D01*
X032100Y019100D01*
X032100Y022100D01*
X030100Y022100D01*
X030600Y021600D01*
X030100Y020600D01*
X029600Y019100D01*
X029600Y018100D01*
X028600Y017100D01*
X027600Y017600D02*
X027600Y016100D01*
X030100Y016100D01*
X030100Y017100D01*
X029100Y018600D02*
X028600Y021600D01*
X029100Y023600D01*
X033100Y023600D01*
X033100Y020100D01*
X035600Y020100D01*
X035600Y009600D01*
X033100Y009600D01*
X028100Y009600D02*
X027100Y009600D01*
X026100Y008600D01*
X024600Y008600D01*
X024100Y013100D01*
X025100Y013600D01*
X025600Y016600D01*
X024600Y017100D01*
X024600Y015600D02*
X023100Y015600D01*
X022100Y016100D01*
X022100Y019100D01*
X026600Y017100D02*
X026100Y014100D01*
X026100Y013600D01*
X027100Y013600D01*
X028100Y012600D01*
X026100Y013600D02*
X025100Y012600D01*
X027100Y015100D02*
X029600Y015100D01*
X027600Y017600D02*
X029100Y018600D01*
M02*
