%
M48
M72
T01C0.0276
T02C0.0320
T03C0.0354
T04C0.0400
%
T01
X29600Y15100
X30600Y15100
X33600Y14100
X34600Y14100
T02
X25100Y9600
X26100Y9600
X27100Y9600
X28100Y9600
X30100Y9600
X31100Y9600
X32100Y9600
X33100Y9600
X33100Y12600
X32100Y12600
X31100Y12600
X30100Y12600
X28100Y12600
X27100Y12600
X26100Y12600
X25100Y12600
T03
X25100Y19100
X26600Y21100
X29600Y21100
X31100Y21100
X34100Y21100
X31100Y19100
X28100Y19100
X22100Y19100
T04
X24600Y17100
X24600Y15600
X26600Y17100
X28600Y17100
X30100Y17100
X27100Y15100
X33600Y17100
X33600Y19100
M30
