G75*
G70*
%OFA0B0*%
%FSLAX24Y24*%
%IPPOS*%
%LPD*%
%AMOC8*
5,1,8,0,0,1.08239X$1,22.5*
%
%ADD10C,0.0080*%
%ADD11C,0.0060*%
D10*
X024100Y015350D02*
X024350Y015100D01*
X024850Y015100D01*
X025100Y015350D01*
X025100Y015850D01*
X024850Y016100D01*
X024350Y016100D01*
X024100Y015850D01*
X024100Y015350D01*
X024350Y016600D02*
X024850Y016600D01*
X025100Y016850D01*
X025100Y017350D01*
X024850Y017600D01*
X024350Y017600D01*
X024100Y017350D01*
X024100Y016850D01*
X024350Y016600D01*
X026100Y016850D02*
X026350Y016600D01*
X026850Y016600D01*
X027100Y016850D01*
X027100Y017350D01*
X026850Y017600D01*
X026350Y017600D01*
X026100Y017350D01*
X026100Y016850D01*
X026850Y015600D02*
X026600Y015350D01*
X026600Y014850D01*
X026850Y014600D01*
X027350Y014600D01*
X027600Y014850D01*
X027600Y015350D01*
X027350Y015600D01*
X026850Y015600D01*
X028100Y016850D02*
X028350Y016600D01*
X028850Y016600D01*
X029100Y016850D01*
X029100Y017350D01*
X028850Y017600D01*
X028350Y017600D01*
X028100Y017350D01*
X028100Y016850D01*
X029600Y016850D02*
X029850Y016600D01*
X030350Y016600D01*
X030600Y016850D01*
X030600Y017350D01*
X030350Y017600D01*
X029850Y017600D01*
X029600Y017350D01*
X029600Y016850D01*
X029800Y015650D02*
X029400Y015650D01*
X029116Y015100D02*
X029118Y015162D01*
X029124Y015225D01*
X029134Y015286D01*
X029148Y015347D01*
X029165Y015407D01*
X029186Y015466D01*
X029212Y015523D01*
X029240Y015578D01*
X029272Y015632D01*
X029308Y015683D01*
X029346Y015733D01*
X029388Y015779D01*
X029432Y015823D01*
X029480Y015864D01*
X029529Y015902D01*
X029581Y015936D01*
X029635Y015967D01*
X029691Y015995D01*
X029749Y016019D01*
X029808Y016040D01*
X029868Y016056D01*
X029929Y016069D01*
X029991Y016078D01*
X030053Y016083D01*
X030116Y016084D01*
X030178Y016081D01*
X030240Y016074D01*
X030302Y016063D01*
X030362Y016048D01*
X030422Y016030D01*
X030480Y016008D01*
X030537Y015982D01*
X030592Y015952D01*
X030645Y015919D01*
X030696Y015883D01*
X030744Y015844D01*
X030790Y015801D01*
X030833Y015756D01*
X030873Y015708D01*
X030910Y015658D01*
X030944Y015605D01*
X030975Y015551D01*
X031001Y015495D01*
X031025Y015437D01*
X031044Y015377D01*
X031060Y015317D01*
X031072Y015255D01*
X031080Y015194D01*
X031084Y015131D01*
X031084Y015069D01*
X031080Y015006D01*
X031072Y014945D01*
X031060Y014883D01*
X031044Y014823D01*
X031025Y014763D01*
X031001Y014705D01*
X030975Y014649D01*
X030944Y014595D01*
X030910Y014542D01*
X030873Y014492D01*
X030833Y014444D01*
X030790Y014399D01*
X030744Y014356D01*
X030696Y014317D01*
X030645Y014281D01*
X030592Y014248D01*
X030537Y014218D01*
X030480Y014192D01*
X030422Y014170D01*
X030362Y014152D01*
X030302Y014137D01*
X030240Y014126D01*
X030178Y014119D01*
X030116Y014116D01*
X030053Y014117D01*
X029991Y014122D01*
X029929Y014131D01*
X029868Y014144D01*
X029808Y014160D01*
X029749Y014181D01*
X029691Y014205D01*
X029635Y014233D01*
X029581Y014264D01*
X029529Y014298D01*
X029480Y014336D01*
X029432Y014377D01*
X029388Y014421D01*
X029346Y014467D01*
X029308Y014517D01*
X029272Y014568D01*
X029240Y014622D01*
X029212Y014677D01*
X029186Y014734D01*
X029165Y014793D01*
X029148Y014853D01*
X029134Y014914D01*
X029124Y014975D01*
X029118Y015038D01*
X029116Y015100D01*
X033400Y014650D02*
X033800Y014650D01*
X033116Y014100D02*
X033118Y014162D01*
X033124Y014225D01*
X033134Y014286D01*
X033148Y014347D01*
X033165Y014407D01*
X033186Y014466D01*
X033212Y014523D01*
X033240Y014578D01*
X033272Y014632D01*
X033308Y014683D01*
X033346Y014733D01*
X033388Y014779D01*
X033432Y014823D01*
X033480Y014864D01*
X033529Y014902D01*
X033581Y014936D01*
X033635Y014967D01*
X033691Y014995D01*
X033749Y015019D01*
X033808Y015040D01*
X033868Y015056D01*
X033929Y015069D01*
X033991Y015078D01*
X034053Y015083D01*
X034116Y015084D01*
X034178Y015081D01*
X034240Y015074D01*
X034302Y015063D01*
X034362Y015048D01*
X034422Y015030D01*
X034480Y015008D01*
X034537Y014982D01*
X034592Y014952D01*
X034645Y014919D01*
X034696Y014883D01*
X034744Y014844D01*
X034790Y014801D01*
X034833Y014756D01*
X034873Y014708D01*
X034910Y014658D01*
X034944Y014605D01*
X034975Y014551D01*
X035001Y014495D01*
X035025Y014437D01*
X035044Y014377D01*
X035060Y014317D01*
X035072Y014255D01*
X035080Y014194D01*
X035084Y014131D01*
X035084Y014069D01*
X035080Y014006D01*
X035072Y013945D01*
X035060Y013883D01*
X035044Y013823D01*
X035025Y013763D01*
X035001Y013705D01*
X034975Y013649D01*
X034944Y013595D01*
X034910Y013542D01*
X034873Y013492D01*
X034833Y013444D01*
X034790Y013399D01*
X034744Y013356D01*
X034696Y013317D01*
X034645Y013281D01*
X034592Y013248D01*
X034537Y013218D01*
X034480Y013192D01*
X034422Y013170D01*
X034362Y013152D01*
X034302Y013137D01*
X034240Y013126D01*
X034178Y013119D01*
X034116Y013116D01*
X034053Y013117D01*
X033991Y013122D01*
X033929Y013131D01*
X033868Y013144D01*
X033808Y013160D01*
X033749Y013181D01*
X033691Y013205D01*
X033635Y013233D01*
X033581Y013264D01*
X033529Y013298D01*
X033480Y013336D01*
X033432Y013377D01*
X033388Y013421D01*
X033346Y013467D01*
X033308Y013517D01*
X033272Y013568D01*
X033240Y013622D01*
X033212Y013677D01*
X033186Y013734D01*
X033165Y013793D01*
X033148Y013853D01*
X033134Y013914D01*
X033124Y013975D01*
X033118Y014038D01*
X033116Y014100D01*
X033350Y016600D02*
X033850Y016600D01*
X034100Y016850D01*
X034100Y017350D01*
X033850Y017600D01*
X033350Y017600D01*
X033100Y017350D01*
X033100Y016850D01*
X033350Y016600D01*
X033350Y018600D02*
X033850Y018600D01*
X034100Y018850D01*
X034100Y019350D01*
X033850Y019600D01*
X033350Y019600D01*
X033100Y019350D01*
X033100Y018850D01*
X033350Y018600D01*
X030700Y019100D02*
X030600Y019100D01*
X030600Y018800D01*
X028600Y018800D01*
X028600Y019100D01*
X028500Y019100D01*
X028600Y019100D02*
X028600Y019400D01*
X030600Y019400D01*
X030600Y019100D01*
X031600Y020800D02*
X031600Y021100D01*
X031500Y021100D01*
X031600Y021100D02*
X031600Y021400D01*
X033600Y021400D01*
X033600Y021100D01*
X033700Y021100D01*
X033600Y021100D02*
X033600Y020800D01*
X031600Y020800D01*
X029200Y021100D02*
X029100Y021100D01*
X029100Y020800D01*
X027100Y020800D01*
X027100Y021100D01*
X027000Y021100D01*
X027100Y021100D02*
X027100Y021400D01*
X029100Y021400D01*
X029100Y021100D01*
X024700Y019100D02*
X024600Y019100D01*
X024600Y018800D01*
X022600Y018800D01*
X022600Y019100D01*
X022500Y019100D01*
X022600Y019100D02*
X022600Y019400D01*
X024600Y019400D01*
X024600Y019100D01*
D11*
X024600Y010700D02*
X024600Y009950D01*
X028600Y009950D01*
X028600Y012250D01*
X024600Y012250D01*
X024600Y011500D01*
X024639Y011498D01*
X024678Y011492D01*
X024716Y011483D01*
X024753Y011470D01*
X024789Y011453D01*
X024822Y011433D01*
X024854Y011409D01*
X024883Y011383D01*
X024909Y011354D01*
X024933Y011322D01*
X024953Y011289D01*
X024970Y011253D01*
X024983Y011216D01*
X024992Y011178D01*
X024998Y011139D01*
X025000Y011100D01*
X024998Y011061D01*
X024992Y011022D01*
X024983Y010984D01*
X024970Y010947D01*
X024953Y010911D01*
X024933Y010878D01*
X024909Y010846D01*
X024883Y010817D01*
X024854Y010791D01*
X024822Y010767D01*
X024789Y010747D01*
X024753Y010730D01*
X024716Y010717D01*
X024678Y010708D01*
X024639Y010702D01*
X024600Y010700D01*
X029600Y010700D02*
X029600Y009950D01*
X033600Y009950D01*
X033600Y012250D01*
X029600Y012250D01*
X029600Y011500D01*
X029639Y011498D01*
X029678Y011492D01*
X029716Y011483D01*
X029753Y011470D01*
X029789Y011453D01*
X029822Y011433D01*
X029854Y011409D01*
X029883Y011383D01*
X029909Y011354D01*
X029933Y011322D01*
X029953Y011289D01*
X029970Y011253D01*
X029983Y011216D01*
X029992Y011178D01*
X029998Y011139D01*
X030000Y011100D01*
X029998Y011061D01*
X029992Y011022D01*
X029983Y010984D01*
X029970Y010947D01*
X029953Y010911D01*
X029933Y010878D01*
X029909Y010846D01*
X029883Y010817D01*
X029854Y010791D01*
X029822Y010767D01*
X029789Y010747D01*
X029753Y010730D01*
X029716Y010717D01*
X029678Y010708D01*
X029639Y010702D01*
X029600Y010700D01*
X029623Y018980D02*
X029567Y019037D01*
X029793Y019264D01*
X029793Y019037D01*
X029737Y018980D01*
X029623Y018980D01*
X029567Y019037D02*
X029567Y019264D01*
X029623Y019320D01*
X029737Y019320D01*
X029793Y019264D01*
X029935Y019320D02*
X029935Y018980D01*
X029935Y019093D02*
X030105Y018980D01*
X029935Y019093D02*
X030105Y019207D01*
X029425Y019264D02*
X029368Y019320D01*
X029255Y019320D01*
X029198Y019264D01*
X029198Y019207D01*
X029255Y019150D01*
X029425Y019150D01*
X029425Y019037D02*
X029425Y019264D01*
X029425Y019037D02*
X029368Y018980D01*
X029255Y018980D01*
X029198Y019037D01*
X029057Y019037D02*
X029000Y018980D01*
X028887Y018980D01*
X028830Y019037D01*
X028943Y019150D02*
X029000Y019150D01*
X029057Y019093D01*
X029057Y019037D01*
X029000Y019150D02*
X029057Y019207D01*
X029057Y019264D01*
X029000Y019320D01*
X028887Y019320D01*
X028830Y019264D01*
X028605Y020980D02*
X028435Y021093D01*
X028605Y021207D01*
X028435Y021320D02*
X028435Y020980D01*
X028293Y021037D02*
X028237Y020980D01*
X028123Y020980D01*
X028067Y021037D01*
X028293Y021264D01*
X028293Y021037D01*
X028067Y021037D02*
X028067Y021264D01*
X028123Y021320D01*
X028237Y021320D01*
X028293Y021264D01*
X027925Y021264D02*
X027698Y021037D01*
X027755Y020980D01*
X027868Y020980D01*
X027925Y021037D01*
X027925Y021264D01*
X027868Y021320D01*
X027755Y021320D01*
X027698Y021264D01*
X027698Y021037D01*
X027557Y020980D02*
X027330Y020980D01*
X027557Y021207D01*
X027557Y021264D01*
X027500Y021320D01*
X027387Y021320D01*
X027330Y021264D01*
X024105Y019207D02*
X023935Y019093D01*
X024105Y018980D01*
X023935Y018980D02*
X023935Y019320D01*
X023793Y019264D02*
X023567Y019037D01*
X023623Y018980D01*
X023737Y018980D01*
X023793Y019037D01*
X023793Y019264D01*
X023737Y019320D01*
X023623Y019320D01*
X023567Y019264D01*
X023567Y019037D01*
X023425Y019037D02*
X023368Y018980D01*
X023255Y018980D01*
X023198Y019037D01*
X023425Y019264D01*
X023425Y019037D01*
X023425Y019264D02*
X023368Y019320D01*
X023255Y019320D01*
X023198Y019264D01*
X023198Y019037D01*
X023057Y018980D02*
X022830Y018980D01*
X022943Y018980D02*
X022943Y019320D01*
X022830Y019207D01*
X031830Y020980D02*
X032057Y020980D01*
X031943Y020980D02*
X031943Y021320D01*
X031830Y021207D01*
X032198Y021150D02*
X032312Y021207D01*
X032368Y021207D01*
X032425Y021150D01*
X032425Y021037D01*
X032368Y020980D01*
X032255Y020980D01*
X032198Y021037D01*
X032198Y021150D02*
X032198Y021320D01*
X032425Y021320D01*
X032567Y021264D02*
X032623Y021320D01*
X032737Y021320D01*
X032793Y021264D01*
X032567Y021037D01*
X032623Y020980D01*
X032737Y020980D01*
X032793Y021037D01*
X032793Y021264D01*
X032935Y021320D02*
X032935Y020980D01*
X032935Y021093D02*
X033105Y021207D01*
X032935Y021093D02*
X033105Y020980D01*
X032567Y021037D02*
X032567Y021264D01*
M02*
