G75*
G70*
%OFA0B0*%
%FSLAX24Y24*%
%IPPOS*%
%LPD*%
%AMOC8*
5,1,8,0,0,1.08239X$1,22.5*
%
%ADD10C,0.0600*%
%ADD11C,0.0820*%
%ADD12C,0.0480*%
D10*
X007100Y001840D02*
X007100Y002360D01*
X008100Y002360D02*
X008100Y001840D01*
X009100Y001840D02*
X009100Y002360D01*
X010100Y002360D02*
X010100Y001840D01*
X011100Y001840D02*
X011100Y002360D01*
X012100Y002360D02*
X012100Y001840D01*
X013100Y001840D02*
X013100Y002360D01*
X014100Y002360D02*
X014100Y001840D01*
X015100Y001840D02*
X015100Y002360D01*
X016100Y002360D02*
X016100Y001840D01*
X017100Y001840D02*
X017100Y002360D01*
X018100Y002360D02*
X018100Y001840D01*
X019100Y001840D02*
X019100Y002360D01*
X020100Y002360D02*
X020100Y001840D01*
X020100Y007840D02*
X020100Y008360D01*
X019100Y008360D02*
X019100Y007840D01*
X018100Y007840D02*
X018100Y008360D01*
X017100Y008360D02*
X017100Y007840D01*
X016100Y007840D02*
X016100Y008360D01*
X015100Y008360D02*
X015100Y007840D01*
X014100Y007840D02*
X014100Y008360D01*
X013100Y008360D02*
X013100Y007840D01*
X012100Y007840D02*
X012100Y008360D01*
X011100Y008360D02*
X011100Y007840D01*
X010100Y007840D02*
X010100Y008360D01*
X009100Y008360D02*
X009100Y007840D01*
X008100Y007840D02*
X008100Y008360D01*
X007100Y008360D02*
X007100Y007840D01*
X007100Y009840D02*
X007100Y010360D01*
X008100Y010360D02*
X008100Y009840D01*
X009100Y009840D02*
X009100Y010360D01*
X010100Y010360D02*
X010100Y009840D01*
X011100Y009840D02*
X011100Y010360D01*
X012100Y010360D02*
X012100Y009840D01*
X013100Y009840D02*
X013100Y010360D01*
X014100Y010360D02*
X014100Y009840D01*
X015100Y009840D02*
X015100Y010360D01*
X016100Y010360D02*
X016100Y009840D01*
X017100Y009840D02*
X017100Y010360D01*
X018100Y010360D02*
X018100Y009840D01*
X019100Y009840D02*
X019100Y010360D01*
X020100Y010360D02*
X020100Y009840D01*
X020100Y015840D02*
X020100Y016360D01*
X019100Y016360D02*
X019100Y015840D01*
X018100Y015840D02*
X018100Y016360D01*
X017100Y016360D02*
X017100Y015840D01*
X016100Y015840D02*
X016100Y016360D01*
X015100Y016360D02*
X015100Y015840D01*
X014100Y015840D02*
X014100Y016360D01*
X013100Y016360D02*
X013100Y015840D01*
X012100Y015840D02*
X012100Y016360D01*
X011100Y016360D02*
X011100Y015840D01*
X010100Y015840D02*
X010100Y016360D01*
X009100Y016360D02*
X009100Y015840D01*
X008100Y015840D02*
X008100Y016360D01*
X007100Y016360D02*
X007100Y015840D01*
D11*
X006600Y019600D03*
X007100Y021600D03*
X004600Y021600D03*
X003600Y020100D03*
X001100Y020100D03*
X004100Y024600D03*
X006600Y024600D03*
X009100Y024600D03*
X009600Y021600D03*
X009600Y019600D03*
X012100Y019600D03*
X012600Y021600D03*
X015100Y019100D03*
X016100Y021600D03*
X018600Y021600D03*
X021600Y021600D03*
X022100Y027600D03*
X024600Y027600D03*
X019600Y027600D03*
X017100Y027600D03*
X003600Y010600D03*
D12*
X007600Y007100D03*
X017600Y017600D03*
X014100Y018100D03*
M02*
