G75*
G70*
%OFA0B0*%
%FSLAX24Y24*%
%IPPOS*%
%LPD*%
%AMOC8*
5,1,8,0,0,1.08239X$1,22.5*
%
%ADD10C,0.0060*%
%ADD11C,0.0080*%
D10*
X006650Y002500D02*
X020550Y002500D01*
X020550Y007700D01*
X006650Y007700D01*
X006650Y005600D01*
X006694Y005598D01*
X006737Y005592D01*
X006779Y005583D01*
X006821Y005570D01*
X006861Y005553D01*
X006900Y005533D01*
X006937Y005510D01*
X006971Y005483D01*
X007004Y005454D01*
X007033Y005421D01*
X007060Y005387D01*
X007083Y005350D01*
X007103Y005311D01*
X007120Y005271D01*
X007133Y005229D01*
X007142Y005187D01*
X007148Y005144D01*
X007150Y005100D01*
X007148Y005056D01*
X007142Y005013D01*
X007133Y004971D01*
X007120Y004929D01*
X007103Y004889D01*
X007083Y004850D01*
X007060Y004813D01*
X007033Y004779D01*
X007004Y004746D01*
X006971Y004717D01*
X006937Y004690D01*
X006900Y004667D01*
X006861Y004647D01*
X006821Y004630D01*
X006779Y004617D01*
X006737Y004608D01*
X006694Y004602D01*
X006650Y004600D01*
X006650Y002500D01*
X006650Y010500D02*
X020550Y010500D01*
X020550Y015700D01*
X006650Y015700D01*
X006650Y013600D01*
X006694Y013598D01*
X006737Y013592D01*
X006779Y013583D01*
X006821Y013570D01*
X006861Y013553D01*
X006900Y013533D01*
X006937Y013510D01*
X006971Y013483D01*
X007004Y013454D01*
X007033Y013421D01*
X007060Y013387D01*
X007083Y013350D01*
X007103Y013311D01*
X007120Y013271D01*
X007133Y013229D01*
X007142Y013187D01*
X007148Y013144D01*
X007150Y013100D01*
X007148Y013056D01*
X007142Y013013D01*
X007133Y012971D01*
X007120Y012929D01*
X007103Y012889D01*
X007083Y012850D01*
X007060Y012813D01*
X007033Y012779D01*
X007004Y012746D01*
X006971Y012717D01*
X006937Y012690D01*
X006900Y012667D01*
X006861Y012647D01*
X006821Y012630D01*
X006779Y012617D01*
X006737Y012608D01*
X006694Y012602D01*
X006650Y012600D01*
X006650Y010500D01*
D11*
X004100Y010350D02*
X004100Y010850D01*
X003850Y011100D01*
X003350Y011100D01*
X003100Y010850D01*
X003100Y010350D01*
X003350Y010100D01*
X003850Y010100D01*
X004100Y010350D01*
X006350Y019100D02*
X006850Y019100D01*
X007100Y019350D01*
X007100Y019850D01*
X006850Y020100D01*
X006350Y020100D01*
X006100Y019850D01*
X006100Y019350D01*
X006350Y019100D01*
X006850Y021100D02*
X007350Y021100D01*
X007600Y021350D01*
X007600Y021850D01*
X007350Y022100D01*
X006850Y022100D01*
X006600Y021850D01*
X006600Y021350D01*
X006850Y021100D01*
X005100Y021350D02*
X005100Y021850D01*
X004850Y022100D01*
X004350Y022100D01*
X004100Y021850D01*
X004100Y021350D01*
X004350Y021100D01*
X004850Y021100D01*
X005100Y021350D01*
X004100Y020350D02*
X004100Y019850D01*
X003850Y019600D01*
X003350Y019600D01*
X003100Y019850D01*
X003100Y020350D01*
X003350Y020600D01*
X003850Y020600D01*
X004100Y020350D01*
X001600Y020350D02*
X001600Y019850D01*
X001350Y019600D01*
X000850Y019600D01*
X000600Y019850D01*
X000600Y020350D01*
X000850Y020600D01*
X001350Y020600D01*
X001600Y020350D01*
X003850Y024100D02*
X003600Y024350D01*
X003600Y024850D01*
X003850Y025100D01*
X004350Y025100D01*
X004600Y024850D01*
X004600Y024350D01*
X004350Y024100D01*
X003850Y024100D01*
X006100Y024350D02*
X006350Y024100D01*
X006850Y024100D01*
X007100Y024350D01*
X007100Y024850D01*
X006850Y025100D01*
X006350Y025100D01*
X006100Y024850D01*
X006100Y024350D01*
X008600Y024350D02*
X008850Y024100D01*
X009350Y024100D01*
X009600Y024350D01*
X009600Y024850D01*
X009350Y025100D01*
X008850Y025100D01*
X008600Y024850D01*
X008600Y024350D01*
X009350Y022100D02*
X009100Y021850D01*
X009100Y021350D01*
X009350Y021100D01*
X009850Y021100D01*
X010100Y021350D01*
X010100Y021850D01*
X009850Y022100D01*
X009350Y022100D01*
X009350Y020100D02*
X009100Y019850D01*
X009100Y019350D01*
X009350Y019100D01*
X009850Y019100D01*
X010100Y019350D01*
X010100Y019850D01*
X009850Y020100D01*
X009350Y020100D01*
X011600Y019850D02*
X011600Y019350D01*
X011850Y019100D01*
X012350Y019100D01*
X012600Y019350D01*
X012600Y019850D01*
X012350Y020100D01*
X011850Y020100D01*
X011600Y019850D01*
X012350Y021100D02*
X012850Y021100D01*
X013100Y021350D01*
X013100Y021850D01*
X012850Y022100D01*
X012350Y022100D01*
X012100Y021850D01*
X012100Y021350D01*
X012350Y021100D01*
X014600Y019350D02*
X014600Y018850D01*
X014850Y018600D01*
X015350Y018600D01*
X015600Y018850D01*
X015600Y019350D01*
X015350Y019600D01*
X014850Y019600D01*
X014600Y019350D01*
X015850Y021100D02*
X016350Y021100D01*
X016600Y021350D01*
X016600Y021850D01*
X016350Y022100D01*
X015850Y022100D01*
X015600Y021850D01*
X015600Y021350D01*
X015850Y021100D01*
X018100Y021350D02*
X018350Y021100D01*
X018850Y021100D01*
X019100Y021350D01*
X019100Y021850D01*
X018850Y022100D01*
X018350Y022100D01*
X018100Y021850D01*
X018100Y021350D01*
X021100Y021350D02*
X021350Y021100D01*
X021850Y021100D01*
X022100Y021350D01*
X022100Y021850D01*
X021850Y022100D01*
X021350Y022100D01*
X021100Y021850D01*
X021100Y021350D01*
X021850Y027100D02*
X021600Y027350D01*
X021600Y027850D01*
X021850Y028100D01*
X022350Y028100D01*
X022600Y027850D01*
X022600Y027350D01*
X022350Y027100D01*
X021850Y027100D01*
X020100Y027350D02*
X020100Y027850D01*
X019850Y028100D01*
X019350Y028100D01*
X019100Y027850D01*
X019100Y027350D01*
X019350Y027100D01*
X019850Y027100D01*
X020100Y027350D01*
X017600Y027350D02*
X017600Y027850D01*
X017350Y028100D01*
X016850Y028100D01*
X016600Y027850D01*
X016600Y027350D01*
X016850Y027100D01*
X017350Y027100D01*
X017600Y027350D01*
X024100Y027350D02*
X024350Y027100D01*
X024850Y027100D01*
X025100Y027350D01*
X025100Y027850D01*
X024850Y028100D01*
X024350Y028100D01*
X024100Y027850D01*
X024100Y027350D01*
M02*
