G75*
G70*
%OFA0B0*%
%FSLAX24Y24*%
%IPPOS*%
%LPD*%
%AMOC8*
5,1,8,0,0,1.08239X$1,22.5*
%
%ADD10C,0.0520*%
%ADD11C,0.0740*%
%ADD12C,0.0100*%
%ADD13C,0.0400*%
%ADD14C,0.0240*%
D10*
X007100Y001840D02*
X007100Y002360D01*
X008100Y002360D02*
X008100Y001840D01*
X009100Y001840D02*
X009100Y002360D01*
X010100Y002360D02*
X010100Y001840D01*
X011100Y001840D02*
X011100Y002360D01*
X012100Y002360D02*
X012100Y001840D01*
X013100Y001840D02*
X013100Y002360D01*
X014100Y002360D02*
X014100Y001840D01*
X015100Y001840D02*
X015100Y002360D01*
X016100Y002360D02*
X016100Y001840D01*
X017100Y001840D02*
X017100Y002360D01*
X018100Y002360D02*
X018100Y001840D01*
X019100Y001840D02*
X019100Y002360D01*
X020100Y002360D02*
X020100Y001840D01*
X020100Y007840D02*
X020100Y008360D01*
X019100Y008360D02*
X019100Y007840D01*
X018100Y007840D02*
X018100Y008360D01*
X017100Y008360D02*
X017100Y007840D01*
X016100Y007840D02*
X016100Y008360D01*
X015100Y008360D02*
X015100Y007840D01*
X014100Y007840D02*
X014100Y008360D01*
X013100Y008360D02*
X013100Y007840D01*
X012100Y007840D02*
X012100Y008360D01*
X011100Y008360D02*
X011100Y007840D01*
X010100Y007840D02*
X010100Y008360D01*
X009100Y008360D02*
X009100Y007840D01*
X008100Y007840D02*
X008100Y008360D01*
X007100Y008360D02*
X007100Y007840D01*
X007100Y009840D02*
X007100Y010360D01*
X008100Y010360D02*
X008100Y009840D01*
X009100Y009840D02*
X009100Y010360D01*
X010100Y010360D02*
X010100Y009840D01*
X011100Y009840D02*
X011100Y010360D01*
X012100Y010360D02*
X012100Y009840D01*
X013100Y009840D02*
X013100Y010360D01*
X014100Y010360D02*
X014100Y009840D01*
X015100Y009840D02*
X015100Y010360D01*
X016100Y010360D02*
X016100Y009840D01*
X017100Y009840D02*
X017100Y010360D01*
X018100Y010360D02*
X018100Y009840D01*
X019100Y009840D02*
X019100Y010360D01*
X020100Y010360D02*
X020100Y009840D01*
X020100Y015840D02*
X020100Y016360D01*
X019100Y016360D02*
X019100Y015840D01*
X018100Y015840D02*
X018100Y016360D01*
X017100Y016360D02*
X017100Y015840D01*
X016100Y015840D02*
X016100Y016360D01*
X015100Y016360D02*
X015100Y015840D01*
X014100Y015840D02*
X014100Y016360D01*
X013100Y016360D02*
X013100Y015840D01*
X012100Y015840D02*
X012100Y016360D01*
X011100Y016360D02*
X011100Y015840D01*
X010100Y015840D02*
X010100Y016360D01*
X009100Y016360D02*
X009100Y015840D01*
X008100Y015840D02*
X008100Y016360D01*
X007100Y016360D02*
X007100Y015840D01*
D11*
X006600Y019600D03*
X007100Y021600D03*
X004600Y021600D03*
X003600Y020100D03*
X001100Y020100D03*
X004100Y024600D03*
X006600Y024600D03*
X009100Y024600D03*
X009600Y021600D03*
X009600Y019600D03*
X012100Y019600D03*
X012600Y021600D03*
X015100Y019100D03*
X016100Y021600D03*
X018600Y021600D03*
X021600Y021600D03*
X022100Y027600D03*
X024600Y027600D03*
X019600Y027600D03*
X017100Y027600D03*
X003600Y010600D03*
D12*
X005100Y009100D01*
X012100Y009100D01*
X013100Y008100D01*
X012100Y008100D02*
X011100Y007100D01*
X007600Y007100D01*
X001100Y011600D02*
X017600Y011600D01*
X019100Y010100D01*
X015600Y014600D02*
X024100Y014600D01*
X024100Y023600D01*
X012600Y023600D01*
X012600Y021600D01*
X012100Y019600D02*
X013100Y018100D01*
X014100Y018100D01*
X012600Y017600D02*
X017600Y017600D01*
X018100Y017100D02*
X019100Y016100D01*
X018100Y016100D02*
X019100Y015100D01*
X019600Y015100D01*
X019600Y017100D01*
X017600Y020600D01*
X003600Y020600D01*
X003600Y020100D01*
X002600Y017600D02*
X002600Y024600D01*
X004100Y024600D01*
X001100Y020100D02*
X001100Y011600D01*
X002600Y017600D02*
X011600Y017600D01*
X013100Y016100D01*
X012600Y017100D02*
X018100Y017100D01*
X020100Y016100D02*
X022600Y016100D01*
X022600Y021600D01*
X021600Y021600D01*
X015600Y014600D02*
X014100Y016100D01*
X012600Y017100D02*
X011600Y018100D01*
X006600Y018100D01*
X006600Y019600D01*
X009600Y019600D02*
X011600Y018600D01*
X012600Y017600D01*
D13*
X014100Y018100D03*
X017600Y017600D03*
X007600Y007100D03*
D14*
X017100Y002100D02*
X018100Y003100D01*
X027100Y003100D01*
X027100Y025600D01*
X024600Y025600D01*
X024600Y027600D01*
X022100Y027600D02*
X022100Y024600D01*
X025600Y024600D01*
X025600Y009100D01*
X019100Y009100D01*
X018100Y010100D01*
M02*
